<svg xmlns="http://www.w3.org/2000/svg" viewBox="0 0 1500 820"><rect width="1500" height="820" fill="#fff"/><g font-family="sans-serif" fill="#111"><text x="30" y="42" font-size="26" font-weight="700">단백이 애니메이션 CANON — LOCKED</text><text x="30" y="70" font-size="15">원본 하단 예시의 역할을 구현 규격으로 보존한다. 캐릭터 디자인은 프레임마다 바꾸지 않는다.</text><text x="30" y="115" font-size="20" font-weight="700">1. IDLE — 6 frame</text><text x="30" y="340" font-size="20" font-weight="700">2. WALK — 6 frame</text><text x="760" y="115" font-size="20" font-weight="700">3. 운동 — 준비 → 내리기 → 밀기 → 완료</text><text x="760" y="340" font-size="20" font-weight="700">4. 기타 — 손풀기 / 인사 / 앉기 / 스트레칭 / 피로 / 포즈</text><text x="30" y="610" font-size="20" font-weight="700">5. 전투·도전 모션 — 대기 → 도발 → 분노 → 파워업 → 최종 포즈</text></g><g><image href="stages/danbaek_stage_03.svg" x="20" y="135" width="120" height="175"/><image href="stages/danbaek_stage_03.svg" x="140" y="137" width="120" height="173"/><image href="stages/danbaek_stage_03.svg" x="260" y="135" width="120" height="175"/><image href="stages/danbaek_stage_03.svg" x="380" y="138" width="120" height="172"/><image href="stages/danbaek_stage_03.svg" x="500" y="135" width="120" height="175"/><image href="stages/danbaek_stage_03.svg" x="620" y="137" width="120" height="173"/><image href="stages/danbaek_stage_03.svg" x="20" y="360" width="120" height="175" transform="rotate(-3 80 448)"/><image href="stages/danbaek_stage_03.svg" x="140" y="360" width="120" height="175" transform="rotate(3 200 448)"/><image href="stages/danbaek_stage_03.svg" x="260" y="360" width="120" height="175" transform="rotate(-4 320 448)"/><image href="stages/danbaek_stage_03.svg" x="380" y="360" width="120" height="175" transform="rotate(4 440 448)"/><image href="stages/danbaek_stage_03.svg" x="500" y="360" width="120" height="175" transform="rotate(-2 560 448)"/><image href="stages/danbaek_stage_03.svg" x="620" y="360" width="120" height="175" transform="rotate(2 680 448)"/><image href="stages/danbaek_stage_06.svg" x="790" y="145" width="150" height="190"/><image href="stages/danbaek_stage_06.svg" x="950" y="150" width="150" height="185" transform="rotate(-8 1025 242)"/><image href="stages/danbaek_stage_06.svg" x="1110" y="145" width="150" height="190" transform="rotate(8 1185 240)"/><image href="stages/danbaek_stage_06.svg" x="1270" y="145" width="150" height="190"/><image href="stages/danbaek_stage_03.svg" x="780" y="360" width="120" height="175"/><image href="stages/danbaek_stage_03.svg" x="900" y="360" width="120" height="175" transform="rotate(-7 960 448)"/><image href="stages/danbaek_stage_03.svg" x="1020" y="390" width="120" height="145"/><image href="stages/danbaek_stage_03.svg" x="1140" y="350" width="120" height="185" transform="rotate(8 1200 442)"/><image href="stages/danbaek_stage_03.svg" x="1260" y="370" width="120" height="165" opacity="0.72"/><image href="stages/danbaek_stage_07.svg" x="1380" y="360" width="110" height="175"/><image href="stages/danbaek_stage_03.svg" x="40" y="625" width="150" height="180"/><image href="stages/danbaek_stage_04.svg" x="230" y="625" width="150" height="180"/><image href="stages/danbaek_stage_06.svg" x="420" y="615" width="160" height="190"/><image href="stages/danbaek_stage_08.svg" x="620" y="600" width="180" height="205"/><image href="stages/danbaek_stage_10.svg" x="850" y="585" width="210" height="220"/></g><g font-family="sans-serif" fill="#111" font-size="13"><text x="1080" y="790">실제 프레임 제작 시 얼굴·비율·선화는 stage CANON과 동일 유지</text></g></svg>