<svg xmlns="http://www.w3.org/2000/svg" viewBox="0 0 200 280" data-danbaek-canon-stage="9"><g fill="#fff" stroke="#111" stroke-width="3" stroke-linecap="round" stroke-linejoin="round"><g id="head"><path d="M100 38 C111 38 119 46 119 57 C119 68 112 75 100 76 C88 76 81 69 81 57 C81 46 89 38 100 38 Z"/></g><g id="body"><g id="torso-base"><path d="M99 76 C84.9 74 55.8 77 48.8 84 C47.8 95 49.6 103 53.6 116 C55.6 128 78.9 138 80.9 150 C80.9 159 69.4 167 66.4 171 C89.3 175 110.7 175 133.6 170 C131.6 165 119.1 159 119.1 150 C121.1 138 144.4 128 146.4 116 C150.4 103 152.2 95 151.2 84 C144.2 77 115.1 74 101 76 Z"/></g><g id="arm-left"><path d="M52.8 87 C35 91 29.3 104 28.4 117 C26.6 128 32.2 138 32.1 149 C33.9 157 39.7 165 46.3 167 C58.3 168 63.1 164 62.1 157 C62 146 67.8 133 66.8 120 C65.9 105 62.1 95 52.8 87 Z"/></g><g id="arm-right"><path d="M147.2 87 C165 91 170.7 104 171.6 117 C173.4 128 167.8 138 167.9 149 C166.1 157 160.3 165 153.7 167 C141.7 168 136.9 164 137.9 157 C138 146 132.2 133 133.2 120 C134.1 105 137.9 95 147.2 87 Z"/></g><g id="leg-left"><path d="M70.4 168 C65.6 178 63.6 194 66.6 208 C70.1 220 69.1 236 71.1 248 C72.1 254 83.9 256 87.9 254 C99.7 247 101.7 232 100.7 219 C105.2 203 106.2 183 97.2 169 Z"/></g><g id="leg-right"><path d="M129.6 168 C134.4 178 136.4 194 133.4 208 C129.9 220 130.9 236 128.9 248 C127.9 254 116.1 256 112.1 254 C100.3 247 98.3 232 99.3 219 C94.8 203 93.8 183 102.8 169 Z"/></g></g></g><g id="muscle-lines" fill="none" stroke="#111" stroke-width="1.88" stroke-linecap="round" stroke-linejoin="round"><path d="M66.6 102 Q100 92.2 133.4 102"/><path d="M100 97 Q99 104 100 112"/><path d="M94 116 Q92 132 94 150"/><path d="M106 116 Q108 132 106 150"/><path d="M94 123 Q100 125 106 123"/><path d="M94 134 Q100 136 106 134"/><path d="M94 145 Q100 147 106 145"/><path d="M53.8 92 Q60.8 83 67.8 90"/><path d="M146.2 92 Q139.2 83 132.2 90"/><path d="M67.6 186 Q85.9 178 104.2 187"/><path d="M95.8 186 Q114.1 178 132.4 187"/><path d="M39.4 112 Q51.8 120 61.2 111"/><path d="M160.6 112 Q148.2 120 138.8 111"/><path d="M71.1 228 Q85.9 223 99.7 230"/><path d="M99.3 228 Q114.1 223 127.9 230"/></g><g id="face" fill="#111"><circle cx="94" cy="54" r="1.2"/><circle cx="106" cy="54" r="1.2"/></g><path id="mouth" d="M96.5 64 Q100 65.5 103.5 63.5" fill="none" stroke="#111" stroke-width="1.8" stroke-linecap="round"/></svg>